<svg width="54" height="51" viewBox="0 0 54 51" fill="none" xmlns="http://www.w3.org/2000/svg">
<path d="M15.6212 2.81363H8.34498C7.05846 2.81363 5.82463 3.29451 4.91492 4.15048C4.00521 5.00645 3.49414 6.16739 3.49414 7.37791V23.3529C3.49414 24.5634 4.00521 25.7244 4.91492 26.5803C5.82463 27.4363 7.05846 27.9172 8.34498 27.9172H15.6212M32.5992 32.4815V41.61C32.5992 43.4258 31.8326 45.1672 30.468 46.4512C29.1035 47.7351 27.2527 48.4565 25.3229 48.4565L15.6212 27.9172V2.81363H42.98C44.1498 2.80119 45.2851 3.18698 46.1765 3.89992C47.0679 4.61286 47.6554 5.6049 47.8308 6.69327L51.1779 27.2325C51.2834 27.8867 51.2365 28.5546 51.0405 29.19C50.8444 29.8255 50.5039 30.4132 50.0425 30.9125C49.581 31.4117 49.0098 31.8107 48.3682 32.0816C47.7267 32.3525 47.0302 32.489 46.3271 32.4815H32.5992Z" stroke="#FF5151" stroke-width="5" stroke-linecap="round" stroke-linejoin="round"/>
</svg>
