<svg width="47" height="23" viewBox="0 0 47 23" fill="none" xmlns="http://www.w3.org/2000/svg">
<path d="M0.996357 12.7421C0.410572 12.1563 0.410572 11.2065 0.996357 10.6207L10.5423 1.07479C11.1281 0.489008 12.0778 0.489008 12.6636 1.07479C13.2494 1.66058 13.2494 2.61033 12.6636 3.19612L4.17834 11.6814L12.6636 20.1667C13.2494 20.7525 13.2494 21.7022 12.6636 22.288C12.0778 22.8738 11.1281 22.8738 10.5423 22.288L0.996357 12.7421ZM46.3955 13.1814H42.7006V10.1814H46.3955V13.1814ZM35.3109 13.1814H27.9211V10.1814H35.3109V13.1814ZM20.5314 13.1814H13.1416V10.1814H20.5314V13.1814ZM5.75189 13.1814H2.05702V10.1814H5.75189V13.1814Z" fill="#37AD5D"/>
</svg>
