<svg width="54" height="51" viewBox="0 0 54 51" fill="none" xmlns="http://www.w3.org/2000/svg">
<path d="M15.3068 48.4561H8.03053C6.74401 48.4561 5.51017 47.9753 4.60047 47.1193C3.69076 46.2633 3.17969 45.1024 3.17969 43.8919V27.9169C3.17969 26.7064 3.69076 25.5454 4.60047 24.6894C5.51017 23.8335 6.74401 23.3526 8.03053 23.3526H15.3068M32.2847 18.7883V9.65975C32.2847 7.84396 31.5181 6.10255 30.1536 4.8186C28.789 3.53464 26.9383 2.81332 25.0085 2.81332L15.3068 23.3526V48.4561H42.6655C43.8354 48.4686 44.9706 48.0828 45.862 47.3699C46.7534 46.6569 47.341 45.6649 47.5164 44.5765L50.8635 24.0372C50.969 23.3831 50.9221 22.7151 50.726 22.0797C50.53 21.4443 50.1894 20.8566 49.728 20.3573C49.2666 19.858 48.6953 19.4591 48.0538 19.1882C47.4122 18.9173 46.7158 18.7808 46.0126 18.7883H32.2847Z" stroke="#37AD5D" stroke-width="5" stroke-linecap="round" stroke-linejoin="round"/>
</svg>
