<svg width="47" height="23" viewBox="0 0 47 23" fill="none" xmlns="http://www.w3.org/2000/svg">
<path d="M46.0027 12.742C46.5885 12.1562 46.5885 11.2065 46.0027 10.6207L36.4567 1.07473C35.8709 0.488947 34.9212 0.488947 34.3354 1.07473C33.7496 1.66052 33.7496 2.61027 34.3354 3.19605L42.8207 11.6813L34.3354 20.1666C33.7496 20.7524 33.7496 21.7022 34.3354 22.2879C34.9212 22.8737 35.8709 22.8737 36.4567 22.2879L46.0027 12.742ZM0.603516 13.1813H4.29839V10.1813H0.603516V13.1813ZM11.6881 13.1813H19.0779V10.1813H11.6881V13.1813ZM26.4676 13.1813H33.8574V10.1813H26.4676V13.1813ZM41.2471 13.1813H44.942V10.1813H41.2471V13.1813Z" fill="#37AD5D"/>
</svg>
